HIERARCHY
ROOT Hips
{
	OFFSET 51.446499 -7.469076 96.088600
	CHANNELS 6 Xposition Yposition Zposition Xrotation Yrotation Zrotation
	JOINT spine
	{
		OFFSET 0.000000 -0.467660 8.132492
		CHANNELS 3 Xrotation Yrotation Zrotation
		JOINT spine1
		{
			OFFSET 0.000000 -0.000001 10.349800
			CHANNELS 3 Xrotation Yrotation Zrotation
			JOINT spine2
			{
				OFFSET 0.000000 -0.000002 9.916992
				CHANNELS 3 Xrotation Yrotation Zrotation
				JOINT Neck
				{
					OFFSET 0.000000 -1.213904 25.460999
					CHANNELS 3 Xrotation Yrotation Zrotation
					JOINT Head
					{
						OFFSET 0.000000 -0.000001 7.692444
						CHANNELS 3 Xrotation Yrotation Zrotation
						End Site
						{
							OFFSET 0.000000 6.140627 18.619995
						}
					}
				}
				JOINT RightShoulder
				{
					OFFSET -4.175751 0.581443 10.709595
					CHANNELS 3 Xrotation Yrotation Zrotation
					JOINT RightArm
					{
						OFFSET 0.000000 -0.000002 14.046600
						CHANNELS 3 Xrotation Yrotation Zrotation
						JOINT RightArmRoll
						{
							OFFSET 0.000000 -0.000001 7.090973
							CHANNELS 3 Xrotation Yrotation Zrotation
							JOINT RightForeArm
							{
								OFFSET 0.000000 -0.000003 20.653503
								CHANNELS 3 Xrotation Yrotation Zrotation
								JOINT RightForeArmRoll
								{
									OFFSET 0.000000 -0.000001 7.957184
									CHANNELS 3 Xrotation Yrotation Zrotation
									JOINT RightHand
									{
										OFFSET 0.000000 -0.000003 15.968292
										CHANNELS 3 Xrotation Yrotation Zrotation
										End Site
										{
											OFFSET 0.000000 0.000000 0.100006
										}
									}
								}
							}
						}
					}
				}
				JOINT LeftShoulder
				{
					OFFSET 4.175751 0.581443 10.709595
					CHANNELS 3 Xrotation Yrotation Zrotation
					JOINT LeftArm
					{
						OFFSET 0.000000 -0.000002 14.046600
						CHANNELS 3 Xrotation Yrotation Zrotation
						JOINT LeftArmRoll
						{
							OFFSET 0.000000 -0.000001 7.090988
							CHANNELS 3 Xrotation Yrotation Zrotation
							JOINT LeftForeArm
							{
								OFFSET 0.000000 -0.000003 20.653503
								CHANNELS 3 Xrotation Yrotation Zrotation
								JOINT LeftForeArmRoll
								{
									OFFSET 0.000000 -0.000001 7.957184
									CHANNELS 3 Xrotation Yrotation Zrotation
									JOINT LeftHand
									{
										OFFSET 0.000000 -0.000003 15.968307
										CHANNELS 3 Xrotation Yrotation Zrotation
										End Site
										{
											OFFSET 0.000000 0.000000 0.100006
										}
									}
								}
							}
						}
					}
				}
			}
		}
	}
	JOINT RightUpLeg
	{
		OFFSET -7.208340 1.108840 -1.321823
		CHANNELS 3 Xrotation Yrotation Zrotation
		JOINT RightUpLegRoll
		{
			OFFSET 0.000000 -0.000003 18.723801
			CHANNELS 3 Xrotation Yrotation Zrotation
			JOINT RightLeg
			{
				OFFSET 0.000000 0.000004 -23.186600
				CHANNELS 3 Xrotation Yrotation Zrotation
				JOINT RightLegRoll
				{
					OFFSET 0.000000 -0.000004 23.262398
					CHANNELS 3 Xrotation Yrotation Zrotation
					JOINT RightFoot
					{
						OFFSET 0.000000 -0.000003 19.362106
						CHANNELS 3 Xrotation Yrotation Zrotation
						JOINT RightToeBase
						{
							OFFSET 0.000000 -0.000003 16.185699
							CHANNELS 3 Xrotation Yrotation Zrotation
							End Site
							{
								OFFSET 0.006859 0.903520 7.838623
							}
						}
					}
				}
			}
		}
	}
	JOINT LeftUpLeg
	{
		OFFSET 7.208340 1.108840 -1.321823
		CHANNELS 3 Xrotation Yrotation Zrotation
		JOINT LeftUpLegRoll
		{
			OFFSET 0.000000 -0.000003 18.723900
			CHANNELS 3 Xrotation Yrotation Zrotation
			JOINT LeftLeg
			{
				OFFSET 0.000000 -0.000004 23.186508
				CHANNELS 3 Xrotation Yrotation Zrotation
				JOINT LeftLegRoll
				{
					OFFSET 0.000000 -0.000004 23.477509
					CHANNELS 3 Xrotation Yrotation Zrotation
					JOINT LeftFoot
					{
						OFFSET 0.000000 -0.000003 19.147003
						CHANNELS 3 Xrotation Yrotation Zrotation
						JOINT LeftToeBase
						{
							OFFSET 0.000000 -0.000003 16.185699
							CHANNELS 3 Xrotation Yrotation Zrotation
							End Site
							{
								OFFSET -0.030746 0.903521 7.838623
							}
						}
					}
				}
			}
		}
	}
}
MOTION
Frames: 8
Frame Time: 0.041667
52.278805 -7.730994 96.105995 -4.197938 1.861605 1.463996 -1.380851 -0.236228 0.094783 1.241503 -0.476474 0.186351 2.886600 -0.474340 0.191787 10.773566 -5.926393 -6.143730 1.648238 -12.986506 -4.318259 -20.635700 -32.998102 -24.790860 -120.050287 -149.167780 -79.421194 -0.000002 -0.000002 -0.000004 63.195301 0.167680 1.813471 -0.000001 0.000012 -3.002379 -5.000210 -7.999431 0.000077 -13.753935 63.054134 16.383020 -47.899372 112.285721 36.156672 0.000002 0.000001 0.000006 0.069380 8.901766 0.942071 0.000002 -0.000015 3.019299 -5.000206 7.998923 -0.000150 -0.805282 -174.709518 2.382862 -179.999991 0.000005 -1.090994 169.337451 -0.577854 -0.522794 -0.000001 0.000001 0.117070 69.781140 6.542144 2.999874 25.456955 -7.355615 0.000009 -0.711043 171.615647 -2.488554 -0.000005 -0.000006 -0.897985 -14.591212 0.841936 0.793181 0.000000 0.000002 -0.232876 73.602071 -6.035395 -4.293193 25.459486 7.355613 -0.003737 
52.279404 -7.737742 96.102509 -4.185678 1.864507 1.486898 -1.382580 -0.234281 0.095555 1.238052 -0.473200 0.186481 2.883138 -0.471053 0.191882 10.708503 -5.941687 -6.176441 1.740404 -13.007803 -4.334491 -20.643663 -32.986880 -24.802012 -120.063743 -149.154584 -79.226943 0.000001 -0.000004 -0.000007 62.587749 0.259924 1.777052 -0.000002 0.000009 -3.002381 -5.000210 -7.999430 0.000078 -13.770347 63.065636 16.402320 -47.913282 112.270517 36.166251 0.000003 -0.000000 0.000004 0.069377 8.901734 0.941200 0.000002 -0.000015 3.019330 -5.000204 7.998923 -0.000152 -0.809573 -174.715515 2.379191 -179.999991 0.000005 -1.090995 169.342943 -0.578844 -0.522923 -0.000001 0.000002 0.117036 69.783599 6.543248 2.997126 25.456952 -7.355616 0.000010 -0.731798 171.610675 -2.483835 -0.000005 -0.000005 -0.897192 -14.593797 0.837909 0.793565 0.000001 0.000002 -0.232423 73.596907 -6.033504 -4.299996 25.459487 7.355616 -0.003737 
52.281208 -7.722773 96.099991 -4.173682 1.867518 1.509735 -1.384263 -0.232352 0.096360 1.234672 -0.469961 0.186618 2.879767 -0.467799 0.191994 10.642827 -5.956511 -6.209179 1.834131 -13.028751 -4.350569 -20.651724 -32.975549 -24.813483 -120.076324 -149.142795 -79.033137 -0.000002 -0.000001 -0.000006 61.978578 0.354709 1.740294 -0.000003 0.000010 -3.002377 -5.000207 -7.999430 0.000078 -13.786378 63.076981 16.421173 -47.927024 112.255238 36.175151 0.000003 0.000001 0.000007 0.069377 8.901436 0.940375 0.000001 -0.000015 3.019360 -5.000203 7.998924 -0.000152 -0.813147 -174.722523 2.375641 -179.999991 0.000005 -1.090995 169.349254 -0.580816 -0.522230 -0.000001 0.000001 0.116981 69.785648 6.544433 2.994218 25.456952 -7.355617 0.000011 -0.751949 171.605716 -2.478571 -0.000005 -0.000004 -0.896364 -14.595582 0.833246 0.793935 0.000002 0.000001 -0.231975 73.591381 -6.031486 -4.307201 25.459489 7.355616 -0.003736 
52.281609 -7.726416 96.100807 -4.162062 1.870597 1.532378 -1.385895 -0.230450 0.097202 1.231421 -0.466755 0.186809 2.876515 -0.464578 0.192169 10.577332 -5.970393 -6.241654 1.928485 -13.050160 -4.366306 -20.660065 -32.963873 -24.825214 -120.087881 -149.132577 -78.839986 0.000000 -0.000000 -0.000002 61.367378 0.451982 1.703116 -0.000001 0.000010 -3.002371 -5.000209 -7.999427 0.000077 -13.801873 63.088258 16.439394 -47.940432 112.239809 36.183248 0.000001 0.000001 0.000005 0.069374 8.900916 0.939592 0.000002 -0.000015 3.019389 -5.000203 7.998924 -0.000152 -0.815955 -174.728533 2.372178 -179.999991 0.000005 -1.090995 169.356248 -0.581810 -0.522344 -0.000001 0.000002 0.116913 69.787390 6.545641 2.991431 25.456953 -7.355616 0.000010 -0.771335 171.600757 -2.472955 -0.000005 -0.000004 -0.895519 -14.596765 0.828115 0.794291 0.000001 0.000002 -0.231535 73.585576 -6.029308 -4.314899 25.459484 7.355615 -0.003737 
52.275200 -7.739453 96.102303 -4.150983 1.873745 1.554703 -1.387442 -0.228580 0.098078 1.228320 -0.463587 0.187103 2.873414 -0.461392 0.192455 10.512912 -5.982876 -6.273571 2.022538 -13.072531 -4.381462 -20.668385 -32.952111 -24.836996 -120.098577 -149.124094 -78.647675 -0.000002 0.000000 -0.000004 60.753556 0.551697 1.665445 -0.000003 0.000007 -3.002368 -5.000209 -7.999431 0.000078 -13.816721 63.099719 16.456890 -47.955100 112.223512 36.192203 0.000001 0.000000 0.000006 0.069374 8.900174 0.938847 0.000002 -0.000015 3.019430 -5.000205 7.998924 -0.000150 -0.817938 -174.735527 2.368846 -179.999991 0.000005 -1.090995 169.363748 -0.582818 -0.521457 -0.000001 0.000001 0.116845 69.788926 6.546868 2.988560 25.456957 -7.355617 0.000010 -0.789794 171.596782 -2.467232 -0.000005 -0.000005 -0.894669 -14.597344 0.822686 0.794632 0.000002 0.000002 -0.231107 73.579750 -6.027041 -4.322786 25.459486 7.355616 -0.003737 
52.276608 -7.735417 96.102203 -4.140553 1.876922 1.576591 -1.388893 -0.226748 0.098994 1.225409 -0.460457 0.187548 2.870502 -0.458242 0.192897 10.450364 -5.993481 -6.304626 2.115324 -13.096879 -4.395845 -20.676608 -32.939970 -24.848710 -120.108467 -149.117373 -78.456710 -0.000002 -0.000001 -0.000003 60.136797 0.653815 1.627215 -0.000003 0.000010 -3.002370 -5.000212 -7.999433 0.000077 -13.830798 63.111556 16.473481 -47.967606 112.207741 36.198309 0.000002 0.000002 0.000006 0.069370 8.899246 0.938134 -0.000000 -0.000014 3.019462 -5.000201 7.998923 -0.000151 -0.819061 -174.741538 2.365608 -179.999991 0.000005 -1.090994 169.371630 -0.584793 -0.520734 -0.000001 0.000002 0.116784 69.790361 6.548057 2.985688 25.456955 -7.355615 0.000010 -0.807187 171.591824 -2.461592 -0.000005 -0.000005 -0.893827 -14.597625 0.817123 0.794963 0.000002 0.000002 -0.230692 73.573821 -6.024780 -4.330675 25.459489 7.355616 -0.003736 
52.278908 -7.721366 96.098595 -4.130917 1.880106 1.597913 -1.390232 -0.224962 0.099945 1.222729 -0.457367 0.188196 2.867821 -0.455131 0.193542 10.390786 -6.001764 -6.334495 2.205950 -13.123708 -4.409226 -20.684758 -32.927546 -24.860188 -120.117660 -149.112728 -78.267363 0.000000 -0.000000 -0.000003 59.516431 0.758302 1.588363 -0.000000 0.000010 -3.002370 -5.000210 -7.999428 0.000078 -13.843895 63.123789 16.488987 -47.982861 112.190269 36.206959 0.000002 0.000001 0.000005 0.069370 8.898165 0.937457 0.000001 -0.000014 3.019492 -5.000205 7.998924 -0.000152 -0.819264 -174.748532 2.362509 -179.999991 0.000005 -1.090995 169.379744 -0.585788 -0.520835 -0.000001 0.000001 0.116742 69.791665 6.549209 2.982817 25.456952 -7.355615 0.000010 -0.823350 171.586851 -2.456247 -0.000005 -0.000004 -0.893006 -14.597699 0.811597 0.795283 0.000001 0.000002 -0.230292 73.568077 -6.022479 -4.338552 25.459487 7.355614 -0.003737 
52.276203 -7.724816 96.098991 -4.122209 1.883289 1.618525 -1.391441 -0.223225 0.100937 1.220319 -0.454319 0.189093 2.865410 -0.452060 0.194438 10.334773 -6.007256 -6.362910 2.293449 -13.153925 -4.421361 -20.692558 -32.914699 -24.871331 -120.126362 -149.110147 -78.079970 -0.000002 -0.000001 -0.000003 58.892036 0.865142 1.548837 -0.000000 0.000008 -3.002368 -5.000210 -7.999434 0.000080 -13.855924 63.136636 16.503267 -47.997037 112.172361 36.213974 0.000002 0.000000 0.000004 0.069367 8.896956 0.936804 -0.000002 -0.000014 3.019521 -5.000204 7.998923 -0.000148 -0.818501 -174.755526 2.359518 -179.999991 0.000005 -1.090995 169.387844 -0.586785 -0.519938 -0.000001 0.000002 0.116728 69.792840 6.550284 2.980138 25.456952 -7.355615 0.000011 -0.838126 171.582890 -2.451447 -0.000004 -0.000004 -0.892224 -14.597682 0.806277 0.795596 0.000001 0.000002 -0.229911 73.562688 -6.020240 -4.346016 25.459489 7.355616 -0.003737 
